<?xml version="1.0" standalone="no"?>
<!DOCTYPE svg PUBLIC "-//W3C//DTD SVG 20010904//EN"
 "http://www.w3.org/TR/2001/REC-SVG-20010904/DTD/svg10.dtd">
<svg version="1.0" xmlns="http://www.w3.org/2000/svg"
 width="1288.000000pt" height="1288.000000pt" viewBox="0 0 1288.000000 1288.000000"
 preserveAspectRatio="xMidYMid meet">
<metadata>
Created by potrace 1.11, written by Peter Selinger 2001-2013
</metadata>
<g transform="translate(0.000000,1288.000000) scale(0.100000,-0.100000)"
fill="#000000" stroke="none">
<path d="M5955 11129 c-1072 -97 -2056 -521 -2834 -1220 l-92 -82 -87 40
c-102 47 -218 87 -230 79 -5 -3 -99 49 -208 116 -109 66 -284 173 -389 236
-262 160 -277 167 -350 166 -65 -1 -124 -25 -162 -66 -11 -12 -132 -192 -269
-398 -828 -1254 -969 -1469 -985 -1505 -36 -78 -16 -178 47 -237 16 -15 211
-138 434 -273 223 -136 419 -257 435 -270 17 -14 73 -61 125 -105 52 -44 142
-112 200 -151 58 -39 107 -73 109 -75 2 -1 -6 -67 -18 -146 -73 -505 -60
-1016 39 -1494 170 -816 550 -1549 1122 -2165 527 -567 1216 -1005 1978 -1258
545 -181 1087 -262 1670 -248 554 13 1007 97 1533 283 155 55 389 153 367 154
-9 0 -180 16 -380 35 -201 19 -547 51 -770 70 -223 19 -641 57 -930 85 -1015
96 -1366 129 -1505 140 -208 17 -189 -2 -148 142 47 170 240 744 389 1158 281
781 336 935 406 1144 l73 218 95 -6 c52 -4 124 -9 160 -12 556 -41 1212 -84
1235 -80 17 2 229 -18 473 -46 244 -28 445 -48 448 -45 3 3 -105 167 -239 364
-135 197 -256 378 -269 403 -25 45 -95 154 -602 930 -416 637 -468 718 -468
727 1 14 -31 44 -63 58 -16 8 -91 52 -165 98 l-135 84 -6 144 c-11 238 -59
571 -114 785 -91 352 -292 794 -497 1091 -35 52 -51 49 176 28 88 -8 242 -21
341 -30 99 -9 272 -25 385 -35 113 -11 516 -49 895 -85 380 -36 940 -88 1246
-115 671 -59 1402 -128 1447 -136 49 -9 37 8 -103 144 -510 497 -1101 864
-1772 1098 -353 124 -682 199 -1088 250 -152 19 -788 28 -950 13z m-2245
-1934 c144 -87 791 -481 1050 -640 172 -105 464 -283 845 -515 165 -100 311
-189 325 -198 l25 -15 -25 -8 c-14 -5 -189 -40 -390 -80 -201 -39 -368 -74
-373 -78 -4 -4 83 -133 193 -287 110 -153 200 -283 200 -287 0 -5 -19 -6 -42
-3 -24 3 -185 10 -358 16 -173 6 -330 12 -347 15 -18 2 -33 -1 -33 -6 0 -5 94
-150 209 -322 l210 -312 -47 -3 c-26 -1 -204 6 -397 16 -192 11 -353 16 -357
13 -5 -4 13 -54 38 -111 160 -361 234 -533 231 -537 -2 -2 -147 84 -323 190
-175 106 -713 431 -1194 722 -481 290 -881 534 -888 540 -11 10 62 127 391
626 757 1151 897 1360 904 1356 5 -2 73 -44 153 -92z m2841 -1828 c130 -199
305 -468 389 -597 84 -129 190 -291 235 -360 45 -69 112 -171 148 -227 l65
-101 -98 -22 c-54 -13 -103 -26 -109 -29 -8 -5 -1 -36 19 -96 16 -49 30 -95
30 -102 0 -10 -24 -13 -99 -13 -55 0 -102 -4 -105 -9 -3 -4 12 -49 33 -98 l38
-90 -66 -7 c-36 -3 -82 -6 -101 -6 -66 -1 -68 -11 -17 -91 40 -64 44 -74 28
-77 -10 -2 -170 8 -357 22 -515 39 -1151 84 -1418 101 -209 13 -272 22 -255
39 2 2 114 -4 249 -14 135 -10 394 -28 575 -40 182 -12 516 -34 744 -51 228
-16 416 -27 419 -24 4 3 -37 75 -85 152 -14 21 -14 21 97 28 61 4 112 10 114
14 2 3 -14 44 -35 90 -22 46 -37 86 -34 89 2 3 47 7 100 10 60 3 95 9 95 16 0
6 -14 53 -30 105 -16 52 -29 95 -27 96 1 1 47 13 101 26 55 14 103 31 109 40
7 11 -30 74 -148 254 -158 239 -224 341 -470 719 -72 110 -189 290 -262 400
-118 180 -138 217 -115 215 4 0 113 -163 243 -362z m-161 130 c157 -241 390
-599 683 -1047 102 -157 183 -288 179 -291 -4 -4 -51 -17 -104 -29 -78 -17
-98 -25 -98 -39 0 -9 13 -56 29 -103 l29 -86 -109 -8 c-60 -3 -109 -9 -109
-11 0 -3 18 -44 40 -91 22 -47 39 -87 37 -88 -2 -2 -52 -8 -111 -13 -60 -6
-111 -13 -113 -15 -2 -2 18 -39 46 -82 28 -44 47 -80 42 -82 -4 -1 -383 24
-842 58 -1030 74 -1102 79 -1105 82 -2 3 -168 417 -245 611 l-19 49 62 -6
c457 -45 821 -76 826 -72 3 3 -99 162 -226 353 l-232 348 35 3 c19 2 205 -4
413 -12 447 -19 412 -18 412 -7 0 6 -101 151 -224 323 -125 175 -219 315 -212
318 6 2 180 39 386 81 206 42 377 77 380 77 3 1 70 -98 150 -221z"/>
</g>
</svg>
